# xmcd
#
# Track frame offsets: 
#        187
#        11110
#        22395
#        33932
#        51550
#        64117
#        75437
#        83717
#        95292
#        107390
#        120492
#        132715
#        144117
#        157282
#        169272
#        178332
#        191292
#        202157
#        210765
#        223160
#        235932
#        249622
#        260605
#        274175
#        285095
#        297280
#
# Disc length: 4105 seconds
#
# Revision: 0
# Processed by: cddbd v1.5.2PL0 Copyright (c) Steve Scherf et al.
# Submitted via: ExactAudioCopy v0.95a5
#
DISCID=8210071a
DTITLE=Various Artist - Country Music Hall of Fame, 
DYEAR=1995
DGENRE=Country
TTITLE0=We Live In Two Different Worlds - Johnnie and Jack
TTITLE1=Settin' the Woods On Fire - Porter Wagoner
TTITLE2=Roly Poly - Jim Reeves
TTITLE3=Wedding Bells - Hank Snow
TTITLE4=Your Cheatin' Heart - Skeeter Davis
TTITLE5=Kaw-Liga - Sons of the Pioneers
TTITLE6=Tennessee Border - Porter Wagoner
TTITLE7=I Could Never Be Ashamed of You - Charley Pride
TTITLE8=Take These Chains From My Heart - Dottie West
TTITLE9=Half As Much - Eddy Arnold
TTITLE10=There'll Be No Teardrops Tonight - Hank Locklin
TTITLE11=Mansion On the Hill - Hank Snow
TTITLE12=I'm Sorry for You, My Friend - Don Gibson
TTITLE13=Leave Me Alone With the Blues - Vernon Oxford
TTITLE14=Honky Tonk Blues - Charley Pride
TTITLE15=May You Never Be Alone - Hank Locklin
TTITLE16=I Can't Help It (If I'm Still In Love With You) - Skeeter Dav
TTITLE16=is
TTITLE17=Baby We're Really In Love - Don Gibson
TTITLE18=Cold, Cold Heart - Eddy Arnold
TTITLE19=Lonesome Whistle - Hank Snow
TTITLE20=The Tramp On the Street - Norma Jean
TTITLE21=Crazy Heart - Sons of the Pioneers
TTITLE22=Jesus Remembered Me - Johnnie and Jack
TTITLE23=I'm Gonna Sing, Sing, Sing - Charlie Monroe
TTITLE24=No One Will Ever Know - Hank Snow
TTITLE25=Hank Williams Will Live Forever (In People's Hearts) - Johnni
TTITLE25=e and Jack
EXTD=
EXTT0=
EXTT1=
EXTT2=
EXTT3=
EXTT4=
EXTT5=
EXTT6=
EXTT7=
EXTT8=
EXTT9=
EXTT10=
EXTT11=
EXTT12=
EXTT13=
EXTT14=
EXTT15=
EXTT16=
EXTT17=
EXTT18=
EXTT19=
EXTT20=
EXTT21=
EXTT22=
EXTT23=
EXTT24=
EXTT25=
PLAYORDER=
